<svg width="24" height="24" viewBox="0 0 24 24" fill="currentColor"
     xmlns="http://www.w3.org/2000/svg">
        <path d="M4.22239 19.778C4.68626 20.2425 5.23736 20.6108 5.84401 20.8617C6.45066 21.1126 7.1009 21.2411 7.75739 21.24C8.41402 21.2411 9.06441 21.1125 9.67122 20.8617C10.278 20.6108 10.8293 20.2425 11.2934 19.778L14.1214 16.949L12.7074 15.535L9.87939 18.364C9.31586 18.925 8.55306 19.2399 7.75789 19.2399C6.96272 19.2399 6.19992 18.925 5.63639 18.364C5.07489 17.8007 4.7596 17.0378 4.7596 16.2425C4.7596 15.4471 5.07489 14.6842 5.63639 14.121L8.46539 11.293L7.05139 9.87896L4.22239 12.707C3.2862 13.6454 2.76044 14.9169 2.76044 16.2425C2.76044 17.568 3.2862 18.8395 4.22239 19.778ZM19.7784 11.293C20.7141 10.3542 21.2395 9.08288 21.2395 7.75746C21.2395 6.43204 20.7141 5.16068 19.7784 4.22196C18.8399 3.28577 17.5685 2.76001 16.2429 2.76001C14.9173 2.76001 13.6458 3.28577 12.7074 4.22196L9.87939 7.05096L11.2934 8.46496L14.1214 5.63596C14.6849 5.07495 15.4477 4.75999 16.2429 4.75999C17.0381 4.75999 17.8009 5.07495 18.3644 5.63596C18.9259 6.19923 19.2412 6.96213 19.2412 7.75746C19.2412 8.55279 18.9259 9.31569 18.3644 9.87896L15.5354 12.707L16.9494 14.121L19.7784 11.293Z" fill="currentColor"/>
        <path d="M8.46438 16.95L7.04938 15.536L15.5364 7.04996L16.9504 8.46496L8.46438 16.95Z" fill="currentColor"/>
</svg>