<svg xmlns="http://www.w3.org/2000/svg" width="226" height="226" viewBox="0 0 226 226">
    <g fill="#004AC2" fill-rule="evenodd">
        <path d="M.05 94.88c.55-2.18 1.19-4.33 1.66-6.53C11.227 43.466 46.958 8.803 92.11.65c1.57-.32 3.15-.42 4.9-.65.08 1 .19 1.7.19 2.44v25c0 1.77-.41 2.6-2.33 3.09-33.407 8.567-54.407 29.567-63 63-.46 1.78-1.2 2.25-2.89 2.23-8.63-.06-17.26 0-25.89 0-1 0-2.06.14-3.09.22l.05-1.1zM.57 126.88h29.78c2 0 1.81 1.55 2.1 2.76 5.23 21.61 16.74 39.11 35.63 50.85 29.32 18.22 59.2 18.13 89 .69l2.75-1.62 21.75 22.9C146.8 226.33 109.14 232.67 69.39 216 30.19 199.58 8.04 169.04.57 126.88zM202.94 178.71l-21.55-21.48c5.64-8.462 9.706-17.873 12-27.78C203.51 85.83 176.16 41.5 132.61 31c-4.26-1-4.26-1-4.26-5.51V.22c30.24 3.11 70.75 24.58 88.68 68.77 15.76 38.87 7.12 84.17-14.09 109.72z"/>
    </g>
</svg>
